<svg width="16" height="14" viewBox="0 0 16 14" fill="none" xmlns="http://www.w3.org/2000/svg">
<path d="M7.16992 1.04963C7.21436 1.09195 7.24974 1.14286 7.27391 1.19926C7.29808 1.25567 7.31055 1.31639 7.31055 1.37776C7.31055 1.43912 7.29808 1.49985 7.27391 1.55625C7.24974 1.61266 7.21436 1.66356 7.16992 1.70588L2.34961 6.53401L14.9668 6.53401C15.0911 6.53401 15.2103 6.58339 15.2983 6.6713C15.3862 6.75921 15.4355 6.87844 15.4355 7.00276C15.4355 7.12708 15.3862 7.24631 15.2983 7.33421C15.2103 7.42212 15.0911 7.47151 14.9668 7.47151L2.34961 7.47151L7.16992 12.2996C7.25695 12.3867 7.30584 12.5047 7.30584 12.6278C7.30584 12.7508 7.25695 12.8689 7.16992 12.9559C7.0829 13.0429 6.96487 13.0918 6.8418 13.0918C6.71873 13.0918 6.6007 13.0429 6.51367 12.9559L0.888672 7.33088C0.844235 7.28856 0.808857 7.23766 0.784684 7.18125C0.760511 7.12485 0.748047 7.06412 0.748047 7.00276C0.748047 6.94139 0.760511 6.88067 0.784684 6.82426C0.808857 6.76786 0.844235 6.71695 0.888672 6.67463L6.51367 1.04963C6.55599 1.0052 6.6069 0.969819 6.6633 0.945646C6.71971 0.921473 6.78043 0.909008 6.8418 0.909008C6.90316 0.909008 6.96389 0.921473 7.02029 0.945646C7.07669 0.969818 7.1276 1.0052 7.16992 1.04963Z" fill="#FCFCFC"/>
</svg>
