<svg width="14" height="16" viewBox="0 0 14 16" fill="none" xmlns="http://www.w3.org/2000/svg">
<path d="M12.9533 7.07812C12.911 7.12256 12.8601 7.15794 12.8037 7.18211C12.7473 7.20629 12.6865 7.21875 12.6252 7.21875C12.5638 7.21875 12.5031 7.20629 12.4467 7.18211C12.3903 7.15794 12.3394 7.12256 12.297 7.07812L7.46892 2.25781V14.875C7.46892 14.9993 7.41954 15.1185 7.33163 15.2065C7.24372 15.2944 7.12449 15.3438 7.00017 15.3438C6.87585 15.3438 6.75662 15.2944 6.66872 15.2065C6.58081 15.1185 6.53142 14.9993 6.53142 14.875V2.25781L1.7033 7.07812C1.61627 7.16515 1.49824 7.21404 1.37517 7.21404C1.2521 7.21404 1.13407 7.16515 1.04705 7.07812C0.960022 6.9911 0.911133 6.87307 0.911133 6.75C0.911133 6.62693 0.960022 6.5089 1.04705 6.42188L6.67205 0.796875C6.71437 0.752438 6.76527 0.71706 6.82168 0.692887C6.87808 0.668715 6.93881 0.65625 7.00017 0.65625C7.06154 0.65625 7.12226 0.668715 7.17867 0.692887C7.23507 0.71706 7.28598 0.752438 7.3283 0.796875L12.9533 6.42188C12.9977 6.4642 13.0331 6.5151 13.0573 6.57151C13.0815 6.62791 13.0939 6.68863 13.0939 6.75C13.0939 6.81137 13.0815 6.87209 13.0573 6.92849C13.0331 6.9849 12.9977 7.0358 12.9533 7.07812Z" fill="#FCFCFC"/>
</svg>
