<svg width="16" height="14" viewBox="0 0 16 14" fill="none" xmlns="http://www.w3.org/2000/svg">
<path d="M9.01367 12.9504C8.96923 12.908 8.93386 12.8571 8.90968 12.8007C8.88551 12.7443 8.87305 12.6836 8.87305 12.6222C8.87305 12.5609 8.88551 12.5002 8.90968 12.4437C8.93386 12.3873 8.96923 12.3364 9.01367 12.2941L13.834 7.46599L1.2168 7.46599C1.09248 7.46599 0.973248 7.41661 0.88534 7.3287C0.797432 7.24079 0.748047 7.12156 0.748047 6.99724C0.748047 6.87292 0.797432 6.75369 0.88534 6.66579C0.973248 6.57788 1.09248 6.52849 1.2168 6.52849L13.834 6.52849L9.01367 1.70037C8.92665 1.61334 8.87776 1.49531 8.87776 1.37224C8.87776 1.24917 8.92665 1.13114 9.01367 1.04412C9.1007 0.957092 9.21873 0.908203 9.3418 0.908203C9.46487 0.908203 9.5829 0.957092 9.66992 1.04412L15.2949 6.66912C15.3394 6.71144 15.3747 6.76234 15.3989 6.81875C15.4231 6.87515 15.4355 6.93588 15.4355 6.99724C15.4355 7.05861 15.4231 7.11933 15.3989 7.17574C15.3747 7.23214 15.3394 7.28305 15.2949 7.32537L9.66992 12.9504C9.6276 12.9948 9.57669 13.0302 9.52029 13.0544C9.46389 13.0785 9.40316 13.091 9.3418 13.091C9.28043 13.091 9.21971 13.0785 9.1633 13.0544C9.1069 13.0302 9.05599 12.9948 9.01367 12.9504Z" fill="#FCFCFC"/>
</svg>
