<svg width="53" height="53" viewBox="0 0 53 53" fill="none" xmlns="http://www.w3.org/2000/svg">
<g clip-path="url(#clip0_220_46)">
<path d="M0 0V53H53V0H0ZM27.9359 45.3926C27.1551 46.9796 25.6639 48.0224 23.9356 48.5262C21.2806 49.1357 18.7414 48.7882 16.8521 47.6546C15.5875 46.8789 14.6002 45.6847 13.9301 44.3095C15.2752 43.4882 16.6155 42.662 17.9604 41.841C17.9958 41.856 18.1016 42.0474 18.2426 42.2944C18.7565 43.1558 19.1998 43.7655 20.0713 44.1937C20.9278 44.4861 22.807 44.6724 23.5324 43.166C23.9757 42.4002 23.8347 39.9014 23.8347 37.1757C23.8347 32.8933 23.8549 28.6412 23.8549 24.359H28.8123C28.8123 28.9185 28.8375 33.4627 28.8123 38.0069C28.8225 40.7928 29.0644 43.3118 27.9359 45.3926ZM48.5011 43.9921C46.778 49.8866 37.1706 50.078 33.3317 46.1836C32.5206 45.2667 32.0118 44.788 31.528 43.7301C33.5685 42.5562 33.5685 42.5562 35.5532 41.4076C36.6315 43.065 37.6289 43.9771 39.4225 44.3498C41.8558 44.647 44.3044 43.8106 43.7551 41.2262C43.1908 39.1153 38.7725 38.6014 35.7648 36.3442C32.7118 34.2938 31.9963 29.3111 34.5053 26.4646C35.3417 25.4116 36.7674 24.6257 38.2637 24.2479C38.7826 24.1824 39.3065 24.1118 39.8255 24.0463C42.8232 23.9859 44.6972 24.7769 46.0727 26.3134C46.4556 26.7014 46.7678 27.1195 47.3523 28.0264C45.7553 29.044 45.7604 29.034 43.4731 30.5151C42.9845 29.4623 42.1734 28.8021 41.3169 28.5151C39.9868 28.112 38.3092 28.5503 37.9616 29.956C37.8407 30.3894 37.8657 30.7924 38.0574 31.5077C38.5965 32.737 40.4051 33.2711 42.0273 34.0167C46.6975 35.9109 48.2745 37.9412 48.6625 40.3595C49.0352 42.4403 48.5715 43.7905 48.5011 43.9921Z" fill="#95989B"/>
</g>
<defs>
<clipPath id="clip0_220_46">
<rect width="53" height="53" fill="white"/>
</clipPath>
</defs>
</svg>
