<svg width="14" height="24" viewBox="0 0 14 24" fill="none" xmlns="http://www.w3.org/2000/svg">
<g clip-path="url(#clip0_166_32)">
<path d="M0.889648 9.08398C2.12854 9.08398 3.24937 9.08398 4.43154 9.08398C5.31318 12.0833 6.19635 15.081 7.13472 18.2746C8.07922 15.1134 8.96699 12.143 9.8701 9.12148C11.0431 9.12148 12.2053 9.12148 13.4089 9.12148C11.7683 14.0551 10.12 19.0143 8.46101 24.0007C7.64223 24.0007 6.80199 24.0007 5.81763 24.0007C4.19388 19.0841 2.54713 14.0994 0.889648 9.08398Z" fill="white"/>
<path d="M2.52246 0C5.66416 0 8.674 0 11.785 0C10.2594 4.91486 8.75373 9.77008 7.14532 14.9508C5.55836 9.81779 4.05881 4.96769 2.52246 0Z" fill="#CD0043"/>
</g>
<defs>
<clipPath id="clip0_166_32">
<rect width="12.5193" height="24" fill="white" transform="translate(0.889648)"/>
</clipPath>
</defs>
</svg>
