<svg width="63" height="63" viewBox="0 0 63 63" fill="none" xmlns="http://www.w3.org/2000/svg">
<g clip-path="url(#clip0_220_64)">
<path d="M61.8118 28.6928L34.3055 1.18805C32.7224 -0.396018 30.153 -0.396018 28.5679 1.18805L22.8561 6.89989L30.1018 14.1456C31.7857 13.5766 33.7165 13.9584 35.0587 15.3006C36.4074 16.6513 36.7861 18.5987 36.2035 20.2879L43.1864 27.2711C44.8758 26.6889 46.8251 27.0657 48.1745 28.4172C50.0602 30.3021 50.0602 33.3574 48.1745 35.2438C46.2883 37.1303 43.2331 37.1303 41.3456 35.2438C39.9271 33.8238 39.5765 31.7408 40.2947 29.9932L33.7826 23.481L33.7818 40.6182C34.2538 40.8516 34.685 41.16 35.0584 41.5312C36.9441 43.4162 36.9441 46.4717 35.0584 48.3597C33.1722 50.2452 30.1154 50.2452 28.2318 48.3597C26.346 46.472 26.346 43.4167 28.2318 41.5315C28.6836 41.0794 29.2208 40.7213 29.812 40.4779V23.1809C29.2201 22.9392 28.6826 22.5808 28.2318 22.1272C26.8029 20.7004 26.4594 18.604 27.1915 16.8496L20.0493 9.70641L1.18862 28.5656C-0.396207 30.1512 -0.396207 32.7206 1.18862 34.3049L28.6954 61.8104C30.279 63.3948 32.8479 63.3948 34.4335 61.8104L61.8118 34.4327C63.3958 32.8481 63.3958 30.2769 61.8118 28.6928Z" fill="#95989B"/>
</g>
<defs>
<clipPath id="clip0_220_64">
<rect width="63" height="63" fill="white"/>
</clipPath>
</defs>
</svg>
