<svg width="40" height="60" viewBox="0 0 40 60" fill="none" xmlns="http://www.w3.org/2000/svg">
<g clip-path="url(#clip0_220_56)">
<path d="M29.9981 40.0002C35.5199 40.0002 39.9962 35.523 39.9962 30.0001C39.9962 24.4772 35.5199 20 29.9981 20C24.4763 20 20 24.4772 20 30.0001C20 35.523 24.4763 40.0002 29.9981 40.0002Z" fill="#95989B"/>
<path d="M29.9979 19.9999C35.5197 19.9999 39.996 15.5227 39.996 9.99984C39.996 4.47696 35.5197 0.00024 29.9979 0.00024H19.9998V0H10.0017C4.47997 0 0.00390625 4.4772 0.00390625 10.0001C0.00390625 15.523 4.48021 20.0002 10.002 20.0002C4.47997 19.9999 0.00390625 24.4774 0.00390625 30C0.00390625 35.5229 4.48021 40.0001 10.002 40.0001C4.48021 40.0001 0.00390625 44.4773 0.00390625 50.0002C0.00390625 55.523 4.48021 60.0002 10.002 60.0002C15.5238 60.0002 20.0001 55.523 20.0001 50.0002V40.0001V30V19.9999H29.9979Z" fill="#95989B"/>
</g>
<defs>
<clipPath id="clip0_220_56">
<rect width="40" height="60" fill="white"/>
</clipPath>
</defs>
</svg>
