<svg width="49" height="70" viewBox="0 0 49 70" fill="none" xmlns="http://www.w3.org/2000/svg">
<g clip-path="url(#clip0_220_43)">
<path d="M4.51562 0.00390625H7.63298V3.12087H10.4847V0.00390625H13.6023V9.44271H10.485V6.28207H7.63325V9.44271H4.5159L4.51562 0.00390625ZM17.7016 3.13403H14.9572V0.00390625H23.565V3.13403H20.8195V9.44271H17.7019L17.7016 3.13403ZM24.931 0.00390625H28.1814L30.181 3.32051L32.1786 0.00390625H35.4305V9.44271H32.3258V4.76447L30.181 8.12055H30.1276L27.9811 4.76447V9.44271H24.9313L24.931 0.00390625ZM36.9818 0.00390625H40.1V6.32267H44.484V9.44271H36.9818V0.00390625Z" fill="#95989B"/>
<path d="M0 13.7578L4.45925 64.3745L24.4701 69.9964L44.536 64.3667L49 13.7578H0ZM39.6986 25.7698L39.4191 28.917L39.296 30.3123H24.5H24.479H15.8219L16.3825 36.6694H24.5H37.0848H38.7379L38.5883 38.3365L37.1468 54.6798L37.0546 55.7287L24.5 59.2497V59.2508L24.4718 59.2587L11.9061 55.7284L11.0467 45.9811H17.2045L17.6411 50.9323L24.4732 52.7991L24.4787 52.7977V52.7971L31.3202 50.9284L32.0323 42.8773H24.5H24.479H10.7725L9.2649 25.7698L9.11798 24.1044H24.479H39.8455L39.6986 25.7698Z" fill="#95989B"/>
</g>
<defs>
<clipPath id="clip0_220_43">
<rect width="49" height="70" fill="white"/>
</clipPath>
</defs>
</svg>
