<svg width="78" height="20" viewBox="0 0 78 20" fill="none" xmlns="http://www.w3.org/2000/svg">
<g clip-path="url(#clip0_166_36)">
<path d="M18.5698 0.0465316C19.7971 0.0465316 21.0202 0.0422899 22.2475 0.0465316C22.6717 0.0465316 23.0959 0.0719823 23.5201 0.0889495C23.8866 0.105917 24.2078 0.275588 24.5291 0.441017C25.0274 0.695524 25.3857 1.10698 25.6946 1.56085C25.8099 1.72628 25.8593 1.95109 25.9005 2.15894C26.0446 2.89701 26.0899 3.63932 25.8922 4.38163C25.8263 4.63614 25.7151 4.87368 25.5422 5.06456C25.2704 5.36148 25.3404 5.67538 25.5463 5.89595C25.8181 6.18863 25.8881 6.54918 25.9458 6.93094C26.0693 7.73264 26.0364 8.53858 26.0323 9.34452C26.0323 9.75173 26.0158 10.1589 25.9911 10.5661C25.9787 10.7952 25.9499 10.8164 25.7357 10.8207C25.2745 10.8291 24.8132 10.8419 24.352 10.8249C24.1008 10.8164 24.0884 10.791 24.0719 10.5237C24.0472 10.1165 24.0307 9.70931 24.0266 9.3021C24.0184 8.69977 24.0225 8.09743 24.0184 7.4951C24.0184 7.41875 24.0143 7.33815 24.0143 7.2618C24.0019 6.77824 23.6725 6.52373 23.2359 6.45586C23.0959 6.43465 22.9517 6.44314 22.8117 6.44314C21.3868 6.4389 19.9618 6.43041 18.541 6.43041C17.7874 6.43041 17.0337 6.4389 16.28 6.4389C16.2059 6.4389 16.1277 6.4389 16.0535 6.42617C15.8929 6.40072 15.8229 6.34558 15.8188 6.18439C15.8106 5.73052 15.8023 5.27241 15.827 4.81854C15.8435 4.53434 15.8682 4.53434 16.1359 4.52585C16.4489 4.51737 16.7578 4.51737 17.0708 4.51737C18.5698 4.51313 20.0689 4.51737 21.568 4.50889C22.124 4.50464 22.6799 4.47919 23.2359 4.45798C23.31 4.45374 23.3883 4.44526 23.4583 4.42829C23.7425 4.36042 23.9525 4.18651 23.9731 3.88534C24.0019 3.46965 24.0102 3.04971 23.969 2.63826C23.9278 2.23105 23.7178 2.06138 23.3142 1.99775C23.1659 1.9723 23.0135 1.96806 22.8611 1.96382C22.0498 1.95533 21.2385 1.94685 20.4272 1.94261C19.0023 1.92988 17.5814 1.91716 16.1565 1.90867C15.9094 1.90867 15.6664 1.90867 15.4193 1.91716C15.2216 1.9214 15.1722 1.96806 15.131 2.16318C15.1146 2.23953 15.1104 2.31588 15.1104 2.39224C15.1063 5.06032 15.1022 7.73264 15.0981 10.4007C15.0981 10.8037 15.0981 10.8037 14.7027 10.8079C14.2991 10.8122 13.8914 10.8207 13.4878 10.8164C13.2119 10.8122 13.1995 10.791 13.1872 10.5152C13.1748 10.2056 13.1666 9.89595 13.1666 9.58206C13.1542 6.57039 13.146 3.56297 13.1419 0.551304C13.1419 0.00835559 13.0925 0.0634988 13.6155 0.0465316C14.5009 0.0168392 15.3864 0.0253227 16.2759 0.0253227C17.0378 0.021081 17.8038 0.0253227 18.5657 0.0253227C18.5698 0.0338063 18.5698 0.0380481 18.5698 0.0465316Z" fill="white"/>
<path d="M39.6922 4.42404C39.6922 5.56933 39.6964 6.71461 39.6881 7.85989C39.6881 8.14833 39.6675 8.44525 39.6222 8.72945C39.5893 8.9373 39.5234 9.14939 39.4204 9.32754C39.1074 9.86201 38.6791 10.2819 38.1314 10.5577C37.6825 10.7825 37.2007 10.8503 36.7065 10.8588C36.3564 10.8631 36.0105 10.88 35.6604 10.88C33.803 10.88 31.9457 10.8758 30.0883 10.8758C29.3305 10.8758 28.6633 10.6001 28.0868 10.1165C27.6626 9.76021 27.3908 9.27664 27.2631 8.72521C27.2096 8.48343 27.1684 8.22892 27.1684 7.97866C27.1602 5.51418 27.1602 3.04547 27.1602 0.580991C27.1602 0.101669 27.1643 0.093186 27.6255 0.0847024C28.0291 0.0762188 28.4368 0.0804606 28.8404 0.0889442C29.0628 0.0931859 29.0711 0.110153 29.0875 0.343451C29.0958 0.496155 29.0958 0.653101 29.0958 0.810047C29.0958 3.09213 29.0958 5.3742 29.0958 7.65628C29.0958 7.83019 29.0958 8.00835 29.1122 8.17802C29.1493 8.55978 29.3758 8.80156 29.7465 8.83125C30.1295 8.86095 30.5166 8.89064 30.9037 8.89064C32.7158 8.89488 34.5237 8.8864 36.3358 8.88216C36.6859 8.88216 37.0318 8.86095 37.3736 8.76763C37.6248 8.69976 37.7237 8.52585 37.7566 8.28831C37.7731 8.18226 37.769 8.07622 37.769 7.97017C37.7772 5.86201 37.7855 3.75808 37.8019 1.64992C37.8061 1.21302 37.8349 0.776113 37.8596 0.343451C37.8719 0.118637 37.8925 0.0931859 38.1149 0.0889442C38.5679 0.0804606 39.021 0.0804606 39.474 0.0804606C39.6675 0.0804606 39.6758 0.0847024 39.7005 0.29255C39.7211 0.466463 39.7252 0.640376 39.7252 0.814289C39.7252 2.01895 39.7252 3.22362 39.7252 4.42829C39.7128 4.42404 39.7005 4.42404 39.6922 4.42404Z" fill="white"/>
<path d="M64.7979 6.41324C64.7979 7.66456 64.7979 8.91589 64.7979 10.1715C64.7979 10.286 64.7773 10.4048 64.765 10.5193C64.7485 10.6805 64.662 10.7611 64.5055 10.7695C64.2131 10.7865 63.9248 10.8247 63.6324 10.8247C61.6227 10.8374 59.6171 10.8459 57.6073 10.8544C57.3232 10.8544 57.0431 10.8289 56.7589 10.8289C56.5983 10.8247 56.4624 10.7738 56.3636 10.6423C56.1865 10.4048 56.0053 10.1672 55.8364 9.92543C55.6388 9.64123 55.4493 9.35279 55.2516 9.07283C55.0334 8.76743 54.9016 8.44081 54.9016 8.05056C54.9057 5.96361 54.8975 3.87665 54.8975 1.7897C54.8975 1.42066 54.8975 1.05163 54.9057 0.682591C54.9057 0.58503 54.9139 0.487469 54.9345 0.39415C54.9798 0.211754 55.0622 0.0760165 55.2763 0.0717748C55.437 0.067533 55.5935 0.0335987 55.7541 0.0335987C57.7226 0.0208734 59.6953 0.0123898 61.6639 0.00390625C62.0675 0.00390625 62.4752 0.0251152 62.8788 0.0251152C63.1341 0.0251152 63.3318 0.114193 63.476 0.334765C63.8754 0.945582 64.279 1.55216 64.6826 2.15873C64.7815 2.31144 64.8062 2.48111 64.8062 2.65926C64.8103 3.49489 64.8144 4.33052 64.8144 5.16191C64.8144 5.57761 64.8144 5.99754 64.8144 6.41324C64.8103 6.41324 64.8021 6.41324 64.7979 6.41324ZM59.8971 8.92861C60.5478 8.92861 61.1985 8.92861 61.8492 8.92437C62.294 8.92013 62.7346 8.9074 63.1753 8.89044C63.4018 8.88195 63.4718 8.80984 63.5048 8.57655C63.5254 8.42384 63.546 8.2669 63.546 8.11419C63.546 6.48111 63.546 4.85226 63.5377 3.21918C63.5377 2.91801 63.5089 2.61684 63.4883 2.31992C63.4801 2.17994 63.4348 2.03996 63.2824 2.00603C63.0888 1.96361 62.8911 1.92543 62.6976 1.92543C62.294 1.92119 61.8863 1.95513 61.4827 1.95088C60.2842 1.9424 59.0899 1.92119 57.8915 1.91695C57.4797 1.91695 57.0637 1.95513 56.6519 1.98906C56.343 2.01451 56.273 2.09086 56.2647 2.40475C56.2483 3.13434 56.2359 3.85969 56.2277 4.58927C56.2236 4.76318 56.24 4.9371 56.24 5.11101C56.2442 6.14176 56.2442 7.16827 56.2483 8.19903C56.2483 8.33476 56.2689 8.4705 56.2689 8.60624C56.2689 8.75894 56.3471 8.83954 56.483 8.8565C56.7178 8.88195 56.9525 8.92013 57.1831 8.92437C58.0892 8.93286 58.9911 8.92861 59.8971 8.92861Z" fill="white"/>
<path d="M47.3898 4.50033C48.2217 4.50033 49.0495 4.50457 49.8814 4.50033C50.182 4.50033 50.4826 4.47488 50.7874 4.46215C50.8615 4.45791 50.9398 4.44943 51.0098 4.42822C51.3846 4.32641 51.5822 4.07615 51.6028 3.67742C51.6111 3.5332 51.6069 3.38474 51.6069 3.24052C51.6069 2.36671 51.6111 1.4929 51.6111 0.619098C51.6111 0.53002 51.6111 0.445184 51.6234 0.356107C51.6522 0.131293 51.6811 0.0931166 51.9117 0.0888748C52.4018 0.0761495 52.8919 0.0761495 53.3778 0.0591824C53.5096 0.0549406 53.5426 0.118567 53.5467 0.228854C53.5508 0.356107 53.5632 0.479119 53.5632 0.606372C53.5632 1.55653 53.559 2.51093 53.5508 3.46109C53.5508 3.635 53.5343 3.80892 53.5179 3.98283C53.4272 4.84815 52.9331 5.42504 52.2576 5.88315C51.8005 6.1928 51.294 6.30733 50.7586 6.32854C50.3344 6.3455 49.9102 6.34126 49.486 6.3455C49.1648 6.34974 48.8435 6.37095 48.5264 6.37095C48.2999 6.37095 48.1311 6.46427 48.0075 6.65939C47.8346 6.93511 47.6575 7.21083 47.4804 7.4823C46.945 8.31369 46.4137 9.14932 45.8783 9.98071C45.7507 10.1843 45.6107 10.3794 45.4871 10.5873C45.4006 10.7315 45.2771 10.8079 45.1165 10.8121C44.684 10.8248 44.2516 10.8418 43.8151 10.8503C43.6503 10.8545 43.605 10.7994 43.6421 10.6424C43.675 10.5109 43.7203 10.3794 43.7904 10.2691C44.021 9.90436 44.264 9.54805 44.4987 9.18325C44.6799 8.9033 44.857 8.61485 45.0423 8.33066C45.3183 7.90224 45.5983 7.47806 45.8701 7.04964C45.9689 6.89693 46.0596 6.73575 46.146 6.57456C46.2161 6.43882 46.179 6.37944 46.0266 6.37095C45.9401 6.36671 45.8578 6.3752 45.7713 6.3752C45.0917 6.35823 44.4122 6.35399 43.7368 6.31581C42.9996 6.27339 42.3325 6.03585 41.8136 5.45897C41.7106 5.34444 41.5912 5.24688 41.4923 5.12811C41.167 4.74635 41.0187 4.284 41.0064 3.79195C40.9775 2.68484 40.9816 1.57774 40.9816 0.470635C40.9816 0.0803913 40.994 0.0591824 41.3647 0.0422152C41.7765 0.0210063 42.1924 0.0294899 42.6084 0.0422152C42.8143 0.046457 42.8431 0.0846331 42.8555 0.309447C42.8678 0.521537 42.8637 0.737867 42.8678 0.949956C42.8761 1.7771 42.8843 2.60001 42.9008 3.42716C42.9049 3.62228 42.9379 3.81316 42.9543 4.00828C42.9667 4.15674 43.0408 4.24582 43.1767 4.30945C43.4774 4.45367 43.7945 4.4876 44.1116 4.49609C44.5811 4.50881 45.0547 4.50881 45.5242 4.50881C46.146 4.50881 46.7679 4.50881 47.3898 4.50881C47.3898 4.50881 47.3898 4.50457 47.3898 4.50033Z" fill="white"/>
<path d="M6.12413 0.0332031C7.94443 0.0332031 9.76473 0.0332031 11.585 0.0332031C11.6221 0.0332031 11.6592 0.0332031 11.6962 0.0332031C11.9516 0.0416867 11.9969 0.0671374 12.0051 0.338611C12.0216 0.792482 12.0092 1.25059 12.001 1.70447C11.9969 1.86989 11.9557 1.89959 11.7827 1.89959C11.4038 1.90383 11.0291 1.89535 10.6502 1.89959C9.54646 1.89959 8.44275 1.89959 7.33904 1.90383C7.00957 1.90383 6.94779 1.96746 6.92308 2.3068C6.91485 2.42133 6.91485 2.5401 6.91485 2.65462C6.90661 5.25908 6.89837 7.85929 6.89014 10.4637C6.89014 10.5104 6.89014 10.5613 6.88602 10.608C6.8819 10.7225 6.82836 10.7946 6.71305 10.7988C6.2312 10.8073 5.75348 10.8201 5.27163 10.8116C5.09866 10.8116 5.05748 10.7564 5.03689 10.5825C5.0163 10.4086 4.99982 10.2347 4.99982 10.0608C4.99571 7.56661 4.99159 5.0682 4.98747 2.57403C4.98747 2.42981 4.98747 2.28135 4.97923 2.13713C4.97511 1.93352 4.94217 1.90383 4.7486 1.89535C4.62505 1.8911 4.50151 1.89959 4.38207 1.89959C3.12598 1.89959 1.87401 1.90383 0.617917 1.90383C0.494367 1.90383 0.370817 1.89959 0.251385 1.88262C0.0701785 1.85717 0.0166402 1.81051 0.0125219 1.62387C0.000166868 1.20818 -0.00395146 0.78824 0.0042852 0.372546C0.00840353 0.135006 0.0537052 0.0968298 0.296687 0.0841045C0.729112 0.0586538 1.16154 0.0416867 1.59808 0.0416867C3.10539 0.0332031 4.6127 0.0332031 6.12413 0.0332031Z" fill="white"/>
<path d="M69.3242 10.8747C68.8589 10.8747 68.3976 10.811 67.9817 10.5862C67.0427 10.0815 66.4085 9.33067 66.3879 8.19811C66.3508 5.94573 66.3549 3.69334 66.3467 1.44096C66.3467 1.1101 66.3714 0.783479 66.3837 0.452621C66.3879 0.384752 66.392 0.316884 66.4043 0.249015C66.429 0.121762 66.5032 0.036926 66.6391 0.0411678C67.1209 0.0538931 67.5986 0.0708602 68.0805 0.0878273C68.1876 0.0920691 68.2288 0.172663 68.237 0.26174C68.2535 0.405961 68.2617 0.550182 68.2617 0.698644C68.2658 2.85347 68.2617 5.00829 68.2699 7.16736C68.2699 7.5067 68.3029 7.84604 68.3111 8.18539C68.3235 8.63502 68.5376 8.75803 68.9371 8.81741C69.0854 8.83862 69.2378 8.82165 69.3901 8.82165C71.4946 8.83014 73.5949 8.83438 75.6994 8.84711C76.0742 8.85135 76.4531 8.88104 76.8278 8.90649C77.009 8.91922 77.0379 8.94467 77.0379 9.13979C77.0461 9.62335 77.0461 10.1112 77.0379 10.5947C77.0338 10.828 76.9967 10.8577 76.7661 10.8577C75.4811 10.862 70.5227 10.8789 69.3242 10.8747Z" fill="white"/>
<path d="M59.2098 16.8992C59.1974 17.37 59.1645 18.0572 59.1604 18.7486C59.1563 19.3891 58.6538 19.9066 58.0608 19.9194C57.6654 19.9278 57.2742 19.9957 56.8788 19.9999C56.4752 20.0042 56.0716 19.966 55.668 19.9406C55.5362 19.9321 55.4045 19.9024 55.2727 19.9066C54.9638 19.9109 54.7332 19.7751 54.552 19.5206C54.4202 19.3382 54.3378 19.1346 54.3008 18.9098C54.2678 18.702 54.3543 18.6299 54.552 18.6765C54.7702 18.7274 54.9309 18.8589 55.0338 19.0498C55.145 19.2534 55.3097 19.3594 55.5198 19.4103C56.0469 19.5418 56.5782 19.5885 57.1177 19.5376C57.3977 19.5079 57.6778 19.474 57.9578 19.4273C58.4108 19.351 58.5962 19.1431 58.6374 18.6723C58.6538 18.4687 58.6621 18.2651 58.6579 18.0615C58.6538 17.9172 58.6003 17.8154 58.4191 17.9003C58.3161 17.9469 58.2008 17.9639 58.102 18.019C57.8425 18.1633 57.5625 18.1972 57.2824 18.2057C56.8212 18.2226 56.3599 18.2226 55.8987 18.2014C55.5898 18.1887 55.2891 18.1336 54.9926 18.0106C54.5478 17.8282 54.3378 17.4718 54.2431 17.0265C54.1278 16.4793 54.1813 15.9236 54.2637 15.3764C54.3172 15.0116 54.482 14.685 54.7949 14.4856C54.9597 14.3796 55.1491 14.3032 55.3386 14.2608C56.1828 14.0615 57.023 14.1166 57.859 14.3244C58.1843 14.405 58.5056 14.4644 58.8186 14.2863C58.8597 14.2651 58.905 14.2481 58.9503 14.2439C59.1068 14.2184 59.1851 14.2778 59.2016 14.439C59.2139 14.562 59.2057 14.6892 59.2057 14.8165C59.2098 15.4358 59.2098 16.0551 59.2098 16.8992ZM56.6976 17.7391C57.0065 17.7391 57.3236 17.7688 57.6284 17.7306C58.1843 17.6627 58.4685 17.4125 58.5879 16.8653C58.6785 16.4411 58.6662 16.0169 58.6291 15.5927C58.6044 15.3128 58.5179 15.0371 58.2543 14.8759C57.999 14.7232 57.7231 14.6129 57.4266 14.5959C56.7676 14.562 56.1087 14.6044 55.458 14.7317C55.0915 14.8038 54.8773 15.0286 54.8279 15.4146C54.7496 16.0254 54.7373 16.6277 54.8856 17.2343C54.9473 17.4803 55.0668 17.5864 55.2933 17.6458C55.7586 17.7645 56.2281 17.7603 56.6976 17.7391Z" fill="white"/>
<path d="M74.151 16.726C74.151 17.112 74.151 17.5022 74.151 17.8882C74.151 18.2191 74.0768 18.2742 73.7556 18.1979C73.6732 18.1766 73.595 18.1342 73.5126 18.1215C73.4014 18.1045 73.2861 18.0791 73.179 18.096C72.2977 18.2403 71.4164 18.253 70.5351 18.1554C70.2715 18.1257 70.0244 18.0621 69.7896 17.9137C69.5302 17.7482 69.3984 17.5192 69.3902 17.2222C69.386 16.9932 69.4066 16.7556 69.4519 16.5308C69.5137 16.2297 69.732 16.0558 70.0079 15.9667C70.115 15.9327 70.2303 15.9158 70.3415 15.903C71.1405 15.8225 71.9394 15.8225 72.7384 15.8946C72.8949 15.9073 73.0472 15.9752 73.1955 16.0261C73.3932 16.0939 73.4426 16.0685 73.4838 15.8564C73.5332 15.5849 73.5126 15.3219 73.4426 15.0504C73.3932 14.8638 73.282 14.7747 73.1131 14.7323C73.0308 14.7111 72.9443 14.6984 72.8619 14.6941C72.1494 14.6602 71.4329 14.5923 70.7245 14.745C70.5227 14.7875 70.3786 14.885 70.2797 15.0674C70.2385 15.1438 70.1891 15.2116 70.1315 15.2795C70.0161 15.4152 69.8473 15.4534 69.7032 15.3559C69.6496 15.3219 69.6084 15.2286 69.6084 15.165C69.6084 14.8808 69.7608 14.4439 70.1644 14.3463C70.4486 14.2784 70.7327 14.1978 71.021 14.1766C71.8282 14.1173 72.6395 14.1003 73.4344 14.3336C73.7885 14.4354 74.0315 14.639 74.0851 15.042C74.1674 15.6019 74.1798 16.1618 74.151 16.726ZM71.717 17.7143C72.2112 17.6888 72.6972 17.6634 73.1831 17.6337C73.3808 17.621 73.4797 17.5489 73.4961 17.3665C73.5126 17.1289 73.4961 16.8871 73.4673 16.6496C73.4467 16.4842 73.3273 16.4205 73.1626 16.4121C72.8331 16.3951 72.5077 16.3696 72.1783 16.3357C71.5564 16.2678 70.9387 16.3018 70.325 16.4163C70.1438 16.4502 70.0491 16.5308 70.0326 16.7132C70.012 16.8956 70.0079 17.0823 70.0244 17.2647C70.0491 17.5319 70.1315 17.6252 70.3992 17.6464C70.8357 17.6761 71.2805 17.6888 71.717 17.7143Z" fill="white"/>
<path d="M49.3999 15.3586C49.3999 16.1942 49.3999 17.0299 49.3999 17.8612C49.3999 18.1921 49.404 18.1963 49.0787 18.1666C48.9593 18.1539 48.8398 18.1242 48.7245 18.0861C48.5845 18.0394 48.4527 18.0352 48.3086 18.0691C48.0326 18.137 47.7608 18.2048 47.4808 18.2472C46.8013 18.3448 46.1258 18.2939 45.4587 18.1624C44.7338 18.0182 44.4456 17.5643 44.3303 16.945C44.2273 16.3936 44.2644 15.8379 44.4044 15.2992C44.5156 14.8708 44.7792 14.5442 45.1992 14.3787C45.6934 14.1879 46.2041 14.1285 46.7271 14.1582C47.2996 14.1921 47.8761 14.243 48.4239 14.4424C48.4774 14.4593 48.5351 14.4721 48.5886 14.4763C48.6751 14.4848 48.7369 14.4466 48.7533 14.3575C48.7698 14.2727 48.7822 14.1836 48.7822 14.0988C48.7904 13.6916 48.7945 13.2844 48.7986 12.8771C48.7986 12.8008 48.7986 12.7202 48.8069 12.6438C48.8316 12.4445 48.8893 12.3809 49.0416 12.3809C49.2393 12.3809 49.3176 12.4487 49.3423 12.6481C49.3546 12.7457 49.3587 12.8432 49.3587 12.9365C49.3587 13.7425 49.3587 14.5484 49.3587 15.3543C49.3752 15.3586 49.3876 15.3586 49.3999 15.3586ZM46.9125 14.5569C46.4512 14.5823 45.9941 14.6163 45.5452 14.752C45.2198 14.8496 45.018 15.0532 44.9851 15.3968C44.9521 15.7616 44.9233 16.1306 44.9315 16.4954C44.9398 16.7541 45.0098 17.0086 45.0592 17.2632C45.088 17.4031 45.1745 17.5049 45.3063 17.5601C45.644 17.7085 45.9899 17.84 46.3647 17.8443C46.6654 17.8485 46.966 17.8528 47.2666 17.84C47.629 17.8273 47.975 17.734 48.2962 17.5601C48.3827 17.5134 48.4774 17.4413 48.5227 17.3565C48.6421 17.1444 48.7204 16.9153 48.7245 16.6693C48.7286 16.3596 48.741 16.05 48.7286 15.7404C48.7204 15.5792 48.6751 15.418 48.6421 15.2568C48.6051 15.0998 48.5104 14.9938 48.3745 14.9005C47.9214 14.6078 47.4272 14.5399 46.9125 14.5569Z" fill="white"/>
<path d="M64.3492 16.1867C64.3492 15.8177 64.3574 15.4487 64.3492 15.0796C64.341 14.7785 64.3121 14.7573 64.0197 14.7361C63.8797 14.7233 63.7356 14.7276 63.5955 14.7064C63.4226 14.6809 63.2949 14.4222 63.3732 14.261C63.3937 14.2186 63.4596 14.1846 63.5091 14.1761C63.6573 14.1507 63.8056 14.1337 63.958 14.121C64.1927 14.0998 64.3492 13.998 64.3698 13.735C64.3739 13.6586 64.3986 13.5823 64.4151 13.5059C64.4522 13.3405 64.5551 13.2557 64.7116 13.2599C64.8187 13.2599 64.8969 13.3066 64.9134 13.4211C64.9381 13.5823 64.9628 13.7477 64.9793 13.9089C64.9958 14.0828 65.0123 14.104 65.1811 14.1252C65.247 14.1337 65.3129 14.1337 65.3788 14.1337C66.0089 14.1337 66.6431 14.1295 67.2732 14.1252C67.3185 14.1252 67.3679 14.1252 67.4132 14.1252C67.6192 14.1337 67.6233 14.138 67.6645 14.3543C67.7262 14.6597 67.6851 14.7148 67.3803 14.7191C66.6843 14.7233 65.9842 14.7233 65.2882 14.7233C65.0534 14.7233 64.9875 14.77 64.9834 14.999C64.9752 15.7244 64.9793 16.454 64.9793 17.1793C64.9793 17.2557 64.9999 17.332 65.0081 17.4084C65.0246 17.5399 65.0987 17.6077 65.2223 17.6459C65.7124 17.7901 66.2107 17.7944 66.709 17.7138C67.0508 17.6586 67.1661 17.4932 67.1744 17.1284C67.1785 16.9927 67.1661 16.8569 67.1785 16.7212C67.1991 16.5049 67.3268 16.4116 67.5327 16.4625C67.5944 16.4794 67.6809 16.5431 67.6892 16.5982C67.7839 17.0733 67.7262 17.5314 67.4338 17.9216C67.302 18.0955 67.0755 18.1804 66.8573 18.2058C66.5772 18.2398 66.2931 18.2525 66.013 18.244C65.6835 18.2313 65.3582 18.1804 65.0287 18.1507C64.7075 18.121 64.5016 17.9513 64.4233 17.6332C64.3863 17.4847 64.3739 17.3278 64.3698 17.1751C64.3616 16.8442 64.3657 16.5176 64.3657 16.1867C64.3574 16.1867 64.3533 16.1867 64.3492 16.1867Z" fill="white"/>
<path d="M76.3461 15.3247C76.3461 14.5102 76.3461 13.6958 76.3461 12.8814C76.3461 12.822 76.3461 12.7669 76.3502 12.7075C76.3708 12.4318 76.4779 12.3469 76.7415 12.4148C76.8403 12.4402 76.9145 12.4912 76.9227 12.6057C76.935 12.7499 76.9556 12.8941 76.9556 13.0383C76.9598 13.5898 76.9598 14.1412 76.9556 14.6969C76.9474 15.77 76.935 16.8475 76.9268 17.9206C76.9268 17.98 76.9268 18.0352 76.9186 18.0945C76.9145 18.12 76.898 18.1667 76.8856 18.1709C76.7497 18.1836 76.6097 18.2048 76.4738 18.1921C76.3585 18.1794 76.342 18.0691 76.3379 17.9673C76.3379 17.8103 76.342 17.6576 76.342 17.5007C76.342 16.7753 76.342 16.0458 76.342 15.3204C76.342 15.3247 76.3461 15.3247 76.3461 15.3247Z" fill="white"/>
<path d="M62.0228 16.1727C62.0228 16.7454 62.0228 17.318 62.0228 17.8864C62.0228 17.9458 62.0227 18.0009 62.0186 18.0603C62.0145 18.1663 61.9651 18.2173 61.858 18.2173C61.3144 18.2342 61.3556 18.1918 61.3597 17.7464C61.3638 16.6817 61.3638 15.6128 61.3597 14.5481C61.3597 14.1112 61.3556 14.1112 61.7756 14.1282C62.0227 14.1409 62.0269 14.1409 62.0269 14.3954C62.0269 14.9893 62.0228 15.5831 62.0228 16.1727Z" fill="white"/>
<path d="M52.1053 16.2495C52.1053 16.8306 52.1012 17.4118 52.1053 17.9929C52.1053 18.2347 52.0559 18.2856 51.8212 18.2474C51.5288 18.205 51.4629 18.1371 51.4629 17.8359C51.4711 16.7119 51.4835 15.5878 51.4917 14.468C51.4917 14.4383 51.4917 14.4086 51.4958 14.3789C51.5123 14.1244 51.537 14.0862 51.7059 14.0777C51.9612 14.065 52.0518 14.1286 52.0806 14.3577C52.0971 14.4807 52.1012 14.6079 52.1012 14.7352C52.1054 15.24 52.1053 15.7447 52.1053 16.2495Z" fill="white"/>
<path d="M61.4004 12.8047C61.4004 12.775 61.4004 12.7581 61.4004 12.7368C61.4045 12.4993 61.4333 12.4526 61.6063 12.4357C61.8411 12.4145 61.9317 12.4739 61.9728 12.6859C61.9811 12.7241 61.9852 12.7623 61.9852 12.8005C61.9934 13.2289 61.9399 13.1907 61.5569 13.1737C61.4704 13.1695 61.421 13.1144 61.4127 13.0253C61.4086 12.9489 61.4045 12.8726 61.4004 12.8047Z" fill="white"/>
<path d="M52.0719 12.8775C52.0595 13.0132 52.0884 13.132 51.936 13.1532C51.7301 13.1872 51.6106 13.1405 51.5653 12.9878C51.5406 12.9072 51.5242 12.8181 51.52 12.729C51.5118 12.4957 51.6024 12.4109 51.8248 12.4279C51.9319 12.4364 52.006 12.4745 52.0266 12.5891C52.0431 12.6994 52.0595 12.8054 52.0719 12.8775Z" fill="white"/>
</g>
<defs>
<clipPath id="clip0_166_36">
<rect width="77.0417" height="20" fill="white"/>
</clipPath>
</defs>
</svg>
