<svg width="56" height="56" viewBox="0 0 56 56" fill="none" xmlns="http://www.w3.org/2000/svg">
<path d="M3.45117 0.672896C3.45117 1.04675 4.39824 12.0124 5.56954 25.0468C6.71597 38.056 7.71277 49.0965 7.73786 49.5701L7.81268 50.4175L17.9061 53.2087L27.9747 56L29.9934 55.4516C31.0899 55.1526 35.6008 53.9065 40.0371 52.6852C46.9157 50.7911 48.087 50.3924 48.1867 49.9688C48.3112 49.3707 52.5479 1.34579 52.5479 0.548128V0H3.45117V0.672896ZM43.501 11.2647C43.4013 11.8628 42.7533 18.9408 42.0556 27.0404C41.3327 35.1151 40.7346 41.7944 40.6849 41.8441C40.5852 41.9686 28.3485 45.3582 27.9996 45.3582C27.7502 45.3582 21.0712 43.5389 16.5104 42.243L15.2394 41.8692L14.9404 38.5795C14.7907 36.7602 14.5914 34.567 14.4917 33.6948L14.3421 32.1496H17.4572C20.9713 32.1496 20.8717 32.0996 20.8965 34.268C20.8965 34.8163 20.9713 35.6637 21.0461 36.1621L21.1958 37.0592L24.6102 37.9563L27.9996 38.8535L31.364 37.9563C33.2082 37.458 34.7534 37.0341 34.7534 37.0341C34.7782 37.0093 34.9279 35.5387 35.0773 33.7693C35.2269 31.9749 35.4012 30.2304 35.476 29.8316L35.6005 29.1588H14.2177L14.0932 28.5855C14.0184 28.2865 13.869 26.841 13.7693 25.3456L13.5948 22.6789H36.0497L36.1993 20.9841C36.299 20.0619 36.4486 18.6415 36.5232 17.8438C36.6229 16.822 36.598 16.4232 36.3987 16.548C36.249 16.6228 30.9407 16.6228 24.5607 16.5231L12.9718 16.3735L12.8222 14.6041C12.7225 13.6322 12.598 12.2364 12.5232 11.5138L12.3735 10.218H43.6258L43.501 11.2647Z" fill="#95989B"/>
</svg>
