<svg width="56" height="68" viewBox="0 0 56 68" fill="none" xmlns="http://www.w3.org/2000/svg">
<path d="M55.495 34.4718C54.0905 32.4103 52.6848 30.3499 51.2624 28.3007C51.0337 27.9712 50.94 27.654 50.9389 27.2537C50.9311 25.1888 51.0404 23.1092 50.8374 21.0623C50.4023 16.6907 48.7088 12.8027 45.951 9.39496C45.5963 8.95634 45.2136 8.53909 44.8466 8.11621C44.3557 8.91023 43.9262 9.68288 43.4242 10.4049C42.0096 12.4383 40.3195 14.1568 37.9555 15.0656C37.9555 15.0656 36.0701 16.008 34.139 15.1409C33.3034 14.7653 32.3239 14.9587 31.6802 15.6133C31.2496 16.0508 30.8156 16.4917 30.3761 16.9381C31.4381 18.3744 32.0707 20.0074 32.3239 21.8114C32.5058 23.495 32.2536 24.8671 32.2536 24.8671C31.9145 26.8859 31.1068 28.664 29.7681 30.198C29.9343 30.3847 30.0704 30.5422 30.2121 30.6952C31.0153 31.5544 31.8398 32.3934 32.6162 33.2763C33.2633 34.0129 33.4284 34.9037 33.1662 35.8439C32.7869 37.2059 31.5631 37.9628 30.0581 37.8087C28.9425 37.694 28.3803 38.1337 28.3055 39.2494C28.1862 41.0298 28.3234 42.7888 28.87 44.4994C29.8986 47.7182 31.929 50.1351 34.7392 51.92C36.1627 52.8254 37.6989 53.4979 39.2998 53.9961C41.6403 54.7249 43.9764 55.4942 46.3582 56.0577C48.7501 56.6223 50.8218 54.9341 50.9166 52.4576C50.9902 50.5209 50.9367 48.465 50.9378 46.5261C50.9378 46.5261 50.5708 46.5261 50.4068 46.5261C49.0825 46.5261 47.7572 46.5328 46.433 46.5216C45.5271 46.5137 44.8823 45.8782 44.8611 45.0044C44.8399 44.1328 45.4156 43.5131 46.327 43.4489C46.674 43.4242 47.0243 43.4332 47.3723 43.4332C48.5415 43.4321 49.7106 43.4321 50.9635 43.4321V38.4475C51.8682 38.4475 52.7172 38.47 53.5639 38.4419C54.5769 38.4082 55.2976 37.8751 55.7438 36.9798C56.1834 36.1015 56.0305 35.258 55.495 34.4718ZM42.6399 28.5943C40.7211 28.5785 39.205 27.04 39.2329 25.1348C39.2585 23.3083 40.7769 21.8282 42.6198 21.8316C44.4963 21.8361 46.0369 23.3612 46.0314 25.209C46.0258 27.0805 44.4941 28.61 42.6399 28.5943Z" fill="#95989B"/>
<path d="M38.1897 56.9949C37.5917 56.7621 36.9826 56.5596 36.3858 56.3257C32.7991 54.9198 29.8037 52.7414 27.6562 49.4764C25.319 45.9236 24.4878 42.0108 25.1371 37.8192C25.4205 35.9837 26.4725 34.6634 28.3467 34.1629C28.5152 34.1179 28.6881 34.0875 28.9413 34.0335C28.3568 33.4127 27.8235 32.8459 27.2757 32.2656C26.0151 33.0405 24.6641 33.4813 23.2439 33.6703C21.6698 33.9807 20.1582 33.7018 20.1582 33.7018C16.9028 33.2047 14.4574 31.4907 12.6234 28.8072C11.7298 29.2413 10.8607 29.6642 9.94816 30.1073C12.7885 34.8557 16.9229 37.2062 22.386 37.2895V39.9415C22.2745 39.9527 22.1919 39.9662 22.1094 39.9673C18.7023 39.9988 15.5362 39.1643 12.7104 37.2119C8.70761 34.4452 6.45632 30.5651 5.60958 25.8268C5.54375 25.1239 5.39092 23.3188 5.44335 22.2166C5.44558 22.2166 5.44781 22.2166 5.44893 22.2166C5.68097 19.6838 6.3693 17.331 7.62436 15.1604C9.77747 11.4366 12.7918 8.70815 16.8928 7.3934C21.9476 5.77275 26.6945 6.56227 31.0543 9.61238C31.64 10.0229 32.1911 10.484 32.7533 10.9451C33.2018 11.3129 33.6972 11.6188 34.2315 11.8415C34.6733 12.0248 35.1943 12.1946 35.6149 12.1946C36.311 12.1946 37.0451 11.8595 37.5382 11.63C37.8082 11.5052 38.067 11.359 38.3135 11.1903C40.2681 9.85531 41.5276 7.99398 42.5227 5.88972C41.0155 4.58734 39.3588 3.55489 37.5973 2.70239C31.8988 -0.0575564 25.9482 -0.650259 19.79 0.681354C10.4268 2.70577 2.59075 10.1511 0.555887 19.6692C0.378506 20.497 0.273639 21.3416 0.12861 22.2166C0.130841 22.2166 0.131957 22.2166 0.134188 22.2166C-0.0956264 23.9565 0.00924041 26.352 0.168772 27.6499C0.264714 28.7431 0.428708 29.8239 0.674141 30.8935C1.82321 35.8859 4.27643 40.1461 7.83855 43.7811C7.98358 43.9295 8.10741 44.2197 8.11522 44.4278C8.14646 45.2825 8.12526 46.1395 8.12526 46.9954C8.12526 47.596 8.12526 48.1966 8.12526 48.8477C8.37516 48.8477 8.56704 48.8477 8.75893 48.8477C13.3597 48.8432 17.9615 48.8376 22.5623 48.8354C22.8122 48.8354 23.0654 48.8399 23.3131 48.8714C23.8966 48.9456 24.4053 49.4101 24.5503 49.978C24.8214 51.033 24.1018 51.9226 22.9662 51.9226C18.2393 51.9248 13.5125 51.9226 8.78682 51.9215C8.58155 51.9215 8.37739 51.9215 8.15762 51.9215V56.1491C8.39524 56.1491 8.60163 56.1491 8.80801 56.1491C15.1658 56.1502 21.5237 56.1536 27.8815 56.148C28.7785 56.1469 29.6207 56.3268 30.4173 56.7486C32.3919 57.7923 34.3687 58.8292 36.3478 59.865C37.0239 60.2182 37.7066 60.5578 38.4697 60.947C38.4697 59.6525 38.4753 58.4457 38.4574 57.2401C38.4541 57.1546 38.2968 57.0376 38.1897 56.9949Z" fill="#95989B"/>
<path d="M37.9857 64.0747C35.2156 62.6542 32.4556 61.2169 29.6912 59.7841C28.9236 59.3859 28.1137 59.161 27.2435 59.1621C24.6085 59.1666 21.9734 59.1632 19.3372 59.1632C19.3372 59.17 19.3372 59.1767 19.3372 59.1835C16.5906 59.1835 13.844 59.179 11.0974 59.1869C10.4057 59.1891 9.7754 59.432 9.25218 59.8808C8.57277 60.4622 7.90676 61.0628 7.27421 61.6938C6.65505 62.3112 6.22666 63.0614 6.18984 63.96C6.14633 65.0127 6.14299 66.0676 6.15972 67.1214C6.16865 67.6624 6.50779 67.9582 7.04886 67.9784C7.42482 67.9919 7.80189 67.9863 8.17785 67.9818C9.22206 67.9706 9.22206 67.9694 9.28453 66.9077C9.33696 66.0114 9.89923 65.4243 10.7772 65.422C15.9224 65.4131 21.0675 65.4108 26.2127 65.4333C26.5463 65.4344 26.9256 65.5964 27.2034 65.7966C27.7032 66.1565 27.7612 66.7289 27.7433 67.3149C27.7255 67.9166 27.8236 68.0009 28.4105 67.9998C30.2233 67.9953 32.035 67.9908 33.8479 67.9886C35.0327 67.9874 36.2186 67.9998 37.4033 67.9852C38.1017 67.9762 38.4308 67.6298 38.4353 66.9482C38.4397 66.2453 38.4052 65.5401 38.452 64.8406C38.4821 64.4278 38.3237 64.2479 37.9857 64.0747Z" fill="#95989B"/>
<path d="M21.9499 15.3281C17.56 15.2628 14.009 18.7144 13.9432 23.1097C13.8818 27.2462 17.367 30.8553 21.4791 30.9149C25.763 30.9768 29.4155 27.5161 29.4824 23.3346C29.5516 19.0845 26.0731 15.3888 21.9499 15.3281ZM21.7223 27.0651C19.4799 27.0584 17.7061 25.3107 17.6972 23.0962C17.6883 20.9638 19.5056 19.1744 21.6788 19.1767C23.8843 19.1789 25.7028 21.0144 25.6916 23.2278C25.6805 25.3185 23.8676 27.0708 21.7223 27.0651Z" fill="#95989B"/>
<path d="M22.0413 9.33907C18.6186 9.32108 15.6143 10.4761 13.0718 12.7648C9.81984 15.6912 8.11743 19.3453 8.22341 23.7855C8.25019 24.9091 8.42534 26.0124 8.7946 27.1168C9.67147 26.7153 10.5149 26.3284 11.3817 25.9325C10.632 22.8127 11.0626 19.9335 12.813 17.3029C14.56 14.6768 16.9854 13.0685 20.1414 12.5781C21.9788 12.333 23.2138 12.5736 23.2138 12.5736C25.0568 12.8278 26.6922 13.488 28.0254 14.5328C28.7639 13.8344 29.45 13.1866 30.1361 12.5388C28.2965 10.7145 24.8738 9.35482 22.0413 9.33907Z" fill="#95989B"/>
</svg>
