<svg width="17" height="16" viewBox="0 0 17 16" fill="none" xmlns="http://www.w3.org/2000/svg">
<path d="M13.7672 13.6331H11.3731V9.92034C11.3731 9.035 11.3572 7.89529 10.128 7.89529C8.88104 7.89529 8.69026 8.85991 8.69026 9.85588V13.6328H6.29617V5.99793H8.59449V7.04132H8.62667C8.85667 6.65188 9.18904 6.33151 9.58837 6.11433C9.9877 5.89714 10.439 5.79129 10.8943 5.80802C13.3208 5.80802 13.7682 7.38854 13.7682 9.4447L13.7672 13.6331ZM3.59486 4.95429C3.32008 4.95434 3.05145 4.8737 2.82295 4.72257C2.59445 4.57143 2.41635 4.35659 2.31115 4.10522C2.20595 3.85385 2.17838 3.57722 2.23194 3.31034C2.2855 3.04345 2.41778 2.79828 2.61204 2.60584C2.80631 2.4134 3.05384 2.28232 3.32333 2.22919C3.59282 2.17606 3.87216 2.20325 4.12604 2.30734C4.37993 2.41142 4.59694 2.58772 4.74964 2.81394C4.90234 3.04016 4.98388 3.30615 4.98392 3.57825C4.98396 3.75892 4.94805 3.93783 4.87826 4.10476C4.80847 4.2717 4.70617 4.42338 4.57718 4.55116C4.4482 4.67893 4.29505 4.7803 4.1265 4.84947C3.95795 4.91864 3.7773 4.95426 3.59486 4.95429ZM4.79189 13.6331H2.39532V5.99793H4.79189V13.6331ZM14.9608 0.00109011H1.1923C0.879799 -0.00240219 0.578663 0.117109 0.355094 0.333362C0.131526 0.549614 0.00381395 0.844915 0 1.15438V14.8454C0.00368342 15.155 0.13132 15.4505 0.354881 15.667C0.578442 15.8835 0.879644 16.0032 1.1923 15.9999H14.9608C15.274 16.0038 15.5761 15.8844 15.8005 15.6679C16.025 15.4515 16.1535 15.1556 16.1578 14.8454V1.15339C16.1533 0.843314 16.0247 0.547677 15.8003 0.331429C15.5758 0.115182 15.2739 -0.00398762 14.9608 0.000101881" fill="#E8EAED"/>
</svg>
