<svg width="54" height="60" viewBox="0 0 54 60" fill="none" xmlns="http://www.w3.org/2000/svg">
<g clip-path="url(#clip0_220_60)">
<path fill-rule="evenodd" clip-rule="evenodd" d="M46.1066 1.37133H49.3851L49.2821 1.95405H48.6675C48.3601 1.95405 48.1554 1.88589 48.1554 1.88589V2.94885C48.1554 3.32565 48.0529 3.70317 48.0529 4.07997C48.0529 4.45725 47.9503 4.83429 47.9503 5.04021H47.1311V4.07997C47.1311 3.70317 47.2337 3.32565 47.2337 2.94885C47.2337 2.53725 47.3353 2.05749 47.3353 1.88589H46.9258H46.5156C46.311 1.88589 46.1061 1.95405 46.1061 1.95405V1.37133H46.1066ZM49.7941 1.37133H50.9207C50.9207 1.57677 51.0233 1.78293 51.0233 1.88541C51.0233 2.05701 51.2279 2.36517 51.3307 2.74221C51.3307 2.84517 51.4332 3.11949 51.4332 3.32493C51.5348 3.70221 51.7404 4.07925 51.7404 4.07925C51.7404 3.87381 51.945 3.59949 52.0478 3.22245C52.1494 2.94837 52.3552 2.53677 52.4573 2.26245C52.5598 1.95357 52.7647 1.57677 52.7647 1.37109H53.9943V2.53653C53.9943 2.94813 53.8918 3.49653 53.8918 3.87357V5.03949H53.0726V4.28517V3.32493C53.0726 3.01629 53.1751 2.74221 53.1751 2.53629V2.15997L52.0485 5.04021H51.2284C51.2284 4.83429 51.0237 4.45749 51.0237 4.18293C50.9212 3.70317 50.7166 3.32565 50.7166 3.22293C50.7166 3.01749 50.5119 2.64021 50.4091 2.26293V3.22293C50.4091 3.49701 50.3066 3.87429 50.3066 4.18293V5.04021H49.4874C49.4874 4.66293 49.5899 4.18293 49.5899 3.77181C49.5899 3.42885 49.6915 2.94885 49.6915 2.53725C49.6915 2.15997 49.7941 1.78293 49.7941 1.37133ZM10.3865 59.7593H8.2007L7.34732 56.6741H3.31752L2.46413 59.7593H0.34668L4.06883 46.1138H6.45927L10.3865 59.7593ZM6.73226 54.4452L5.29847 49.3027L3.96628 54.4452H6.73226ZM18.2408 59.7593H16.3966V58.3541C16.0891 58.9711 15.6794 59.3832 15.3037 59.5543C14.9284 59.7597 14.5182 60.0007 14.1082 60.0007C13.3569 60.0007 12.6058 59.4857 12.0593 58.6289C11.4448 57.8407 11.1715 56.4696 11.1715 54.858C11.1715 53.2128 11.445 51.7718 11.957 50.915C12.5033 50.0925 13.2888 49.5785 14.2112 49.5785C14.9284 49.5785 15.6797 50.0925 16.3282 51.018V46.1145H18.2408V59.7593ZM13.0502 54.6173C13.0502 55.6454 13.1869 56.5709 13.3576 56.9829C13.6652 57.6 14.1089 58.0111 14.6214 58.0111C15.0993 58.0111 15.4748 57.7025 15.7822 57.3259C16.0896 56.8109 16.3284 55.9541 16.3284 54.9259C16.3284 53.8281 16.158 52.9032 15.8506 52.3881C15.5771 51.8741 15.0993 51.5313 14.6214 51.5313C14.2115 51.5313 13.8359 51.8743 13.4943 52.2861C13.1864 52.8 13.0502 53.5884 13.0502 54.6173ZM19.8115 54.6173C19.8115 53.8281 19.9136 52.9711 20.2215 52.1829C20.5631 51.3605 21.007 50.7434 21.5532 50.3313C22.1336 49.8859 22.8507 49.5775 23.5342 49.5775C24.5929 49.5775 25.583 50.0916 26.2318 51.017C26.9489 52.0452 27.3247 53.417 27.3247 54.857C27.3247 56.297 26.9489 57.5997 26.2318 58.5259C25.4805 59.4854 24.5927 60.0002 23.5342 60.0002C22.8854 60.0002 22.2366 59.7595 21.6221 59.3832C21.0075 58.9713 20.5633 58.3541 20.222 57.6002C19.9146 56.8111 19.812 55.7829 19.812 54.7541V54.6173H19.8115ZM21.7237 54.8573C21.7237 55.8864 21.8262 56.6745 22.1336 57.1886C22.4752 57.7027 22.9875 58.0111 23.4658 58.0111C23.9095 58.0111 24.422 57.7025 24.7291 57.1886C25.0707 56.6745 25.2754 55.8864 25.2754 54.8573C25.2754 53.8281 25.0707 52.9713 24.7291 52.4573C24.4217 51.8745 23.9095 51.5313 23.4658 51.5313C22.9875 51.5313 22.5096 51.8743 22.2362 52.3881C21.9287 52.9709 21.7237 53.8281 21.7237 54.8573ZM28.8268 59.7593V46.1138H30.7385V51.0173C31.2856 50.0913 32.0707 49.5777 32.8215 49.5777C33.7093 49.5777 34.4611 50.0918 35.0415 50.9143C35.6219 51.7711 35.9637 53.0743 35.9637 54.7543C35.9637 56.4005 35.6221 57.8405 35.0415 58.6286C34.4269 59.4854 33.6761 60.0005 32.9243 60.0005C32.5148 60.0005 32.0709 59.7597 31.6946 59.5541C31.2852 59.3829 30.9096 58.8689 30.704 58.3538V59.759L28.8268 59.7593ZM30.7387 54.6173C30.7387 55.6454 30.9101 56.5709 31.0803 56.9829C31.3877 57.6 31.9005 58.0111 32.4467 58.0111C32.9245 58.0111 33.3001 57.7025 33.5733 57.3259C33.8807 56.9141 34.0511 55.9541 34.0511 54.9259C34.0511 53.8281 33.8807 52.9032 33.5733 52.3881C33.3003 51.8741 32.8215 51.5313 32.3437 51.5313C31.9 51.5313 31.5244 51.8743 31.217 52.2861C30.9101 52.8 30.7387 53.5884 30.7387 54.6173ZM41.7689 56.6745L43.6815 56.9832C43.4759 58.0113 42.9981 58.8691 42.5207 59.2459C41.9745 59.6577 41.2227 60.0007 40.4377 60.0007C39.2769 60.0007 38.2519 59.3837 37.6712 58.3545C37.1934 57.4975 36.9878 56.2975 36.9878 54.9264C36.9878 53.3145 37.2608 51.9437 37.8756 51.0177C38.4902 50.0918 39.3782 49.5782 40.3344 49.5782C41.3927 49.5782 42.247 50.0923 42.8279 51.0177C43.4762 52.0459 43.8519 53.5889 43.8519 55.5434H38.9013C38.9013 56.4002 39.0039 56.9829 39.346 57.4284C39.6524 57.8402 40.0284 58.0111 40.4384 58.0111C40.78 58.0111 41.0872 57.9434 41.2234 57.7025C41.3931 57.497 41.5987 57.0859 41.7689 56.6745ZM41.9403 53.9311C41.9403 53.2116 41.6673 52.5602 41.4615 52.1825C41.1885 51.7706 40.779 51.5311 40.4033 51.5311C39.9586 51.5311 39.5499 51.8741 39.345 52.2859C39.0034 52.697 38.9004 53.3141 38.9004 53.9311H41.9403Z" fill="#95989B"/>
<path fill-rule="evenodd" clip-rule="evenodd" d="M0.00488281 0H16.3964L0.00488281 40.08V0ZM27.5628 0H44.1589V39.5652L27.5628 0ZM22.1676 15.3254L31.2171 39.36H25.6165L21.7576 31.7489H15.6109L22.1676 15.3254Z" fill="#95989B"/>
</g>
<defs>
<clipPath id="clip0_220_60">
<rect width="54" height="60" fill="white"/>
</clipPath>
</defs>
</svg>
