<svg width="56" height="16" viewBox="0 0 56 16" fill="none" xmlns="http://www.w3.org/2000/svg">
<g clip-path="url(#clip0_393_29)">
<path d="M15.5724 15.9483C15.5872 15.7926 15.6088 15.6804 15.6088 15.5682C15.6088 11.5265 15.6276 7.48481 15.6007 3.44308C15.5872 1.4657 14.1428 0.0170167 12.2407 0.00860226C9.34516 -0.00401935 6.45094 0.00159026 3.55673 0.00719986C1.37328 0.0100047 0.00424669 1.45027 0.0015544 3.7418C-0.0011379 7.57316 0.00020825 11.4045 0.0015544 15.2359C0.0015544 15.4631 0.0217466 15.6889 0.0352081 15.9483H2.20924C2.20924 15.6384 2.20924 15.3635 2.20924 15.09C2.20924 11.3049 2.2052 7.52127 2.21193 3.73619C2.21462 2.6353 2.58077 2.26647 3.62942 2.26507C6.3446 2.26226 9.05843 2.26507 11.7736 2.26507C13.0888 2.26507 13.4226 2.61987 13.4226 4.02087C13.4226 7.71199 13.4226 11.4031 13.4226 15.0942C13.4226 15.3677 13.4226 15.6412 13.4226 15.9497H15.5697L15.5724 15.9483ZM20.1561 4.62671C20.1291 4.75152 20.0928 4.83988 20.0928 4.92683C20.0901 7.47218 20.0457 10.0175 20.1049 12.5615C20.1534 14.6342 21.6005 15.9946 23.6076 15.996C26.4331 15.9988 29.2587 15.996 32.0843 15.996C34.3794 15.996 35.7081 14.6188 35.7175 12.2151C35.7256 10.1143 35.7189 8.01211 35.7189 5.90991C35.7189 5.4962 35.7189 5.08389 35.7189 4.64494H33.5045C33.5045 7.22536 33.5071 9.74407 33.5031 12.2628C33.5018 13.3216 33.0966 13.7395 32.0722 13.7409C29.291 13.7451 26.5112 13.7451 23.7301 13.7409C22.742 13.7395 22.3355 13.3216 22.3328 12.3063C22.3274 9.9951 22.3314 7.68254 22.3314 5.37139C22.3314 5.12456 22.3314 4.87774 22.3314 4.62391H20.1561V4.62671ZM20.1884 0.0296383V2.21598H22.2843V0.0296383H20.1884ZM33.5368 2.2286H35.6502V0.0422599H33.5368V2.2286Z" fill="white"/>
<path d="M48.0647 15.9976C46.5624 15.9976 45.0601 16.0032 43.5578 15.9962C41.684 15.9864 40.2463 14.5784 40.2221 12.6276C40.1857 9.52271 40.1871 6.41779 40.2221 3.31287C40.2436 1.43365 41.6544 0.022838 43.469 0.0116188C46.4063 -0.00661241 49.3436 0.0032044 52.2809 0.0074116C54.3674 0.0102164 55.7862 1.38036 55.8199 3.54567C55.867 6.53279 55.867 9.52271 55.8199 12.5112C55.7862 14.626 54.3472 15.9962 52.3024 15.9976C50.8903 15.9976 49.4768 15.9976 48.0647 15.9976ZM48.027 13.7453C49.462 13.7453 50.8957 13.7552 52.3307 13.7411C53.1639 13.7327 53.5933 13.3064 53.596 12.4635C53.6082 9.50027 53.6082 6.53559 53.596 3.57232C53.592 2.67057 53.1787 2.26808 52.297 2.26668C49.4284 2.26107 46.5597 2.26107 43.6897 2.26668C42.843 2.26808 42.4203 2.70984 42.4163 3.60878C42.4028 6.50193 42.3961 9.39649 42.3961 12.2896C42.3961 13.3008 42.8188 13.7383 43.7894 13.7425C45.2015 13.7495 46.6136 13.7439 48.027 13.7453Z" fill="white"/>
</g>
<defs>
<clipPath id="clip0_393_29">
<rect width="55.8557" height="16" fill="white"/>
</clipPath>
</defs>
</svg>
