<svg width="56" height="50" viewBox="0 0 56 50" fill="none" xmlns="http://www.w3.org/2000/svg">
<g clip-path="url(#clip0_220_76)">
<path d="M28 40.2778C31.36 40.2778 34.44 39.1667 36.96 36.6667C39.48 34.1667 40.6 31.3889 40.6 27.7778C40.6 24.1667 39.48 21.3889 36.96 18.8889C34.44 16.3889 31.36 15.2778 28 15.2778C24.64 15.2778 21.56 16.3889 19.04 18.8889C16.52 21.3889 15.4 24.4444 15.4 27.7778C15.4 31.1111 16.52 34.1667 19.04 36.6667C21.56 39.1667 24.64 40.2778 28 40.2778ZM28 34.7222C26.04 34.7222 24.36 34.1667 22.96 32.7778C21.56 31.3889 21 29.7222 21 27.7778C21 25.8333 21.56 24.1667 22.96 22.7778C24.36 21.3889 26.04 20.8333 28 20.8333C29.96 20.8333 31.64 21.3889 33.04 22.7778C34.44 24.1667 35 25.8333 35 27.7778C35 29.7222 34.44 31.3889 33.04 32.7778C31.64 34.1667 29.96 34.7222 28 34.7222ZM5.6 50C4.2 50 2.8 49.4444 1.68 48.3333C0.56 47.2222 0 46.1111 0 44.4444V11.1111C0 9.72222 0.56 8.33333 1.68 7.22222C2.8 6.11111 4.2 5.55556 5.6 5.55556H14.56L19.6 0H36.4L41.72 5.55556H50.4C52.08 5.55556 53.2 6.11111 54.32 7.22222C55.44 8.33333 56 9.72222 56 11.1111V44.4444C56 46.1111 55.44 47.2222 54.32 48.3333C53.2 49.4444 52.08 50 50.4 50H5.6ZM5.6 44.4444H50.4V11.1111H38.92L33.88 5.55556H22.12L17.08 11.1111H5.6V44.4444Z" fill="#95989B"/>
</g>
<defs>
<clipPath id="clip0_220_76">
<rect width="56" height="50" fill="white"/>
</clipPath>
</defs>
</svg>
